# xmcd CD database file
#
# Track frame offsets:
#	150
#	14257
#	29950
#	51995
#	75300
#	101330
#	121077
#	136897
#	159275
#	175065
#	197462
#	229462
#	248725
#	269377
#
# Disc length: 3834 seconds
#
# Revision: 0
# Processed by: cddbd v1.4PL0 Copyright (c) Steve Scherf et al.
# Submitted via: CDex 1.40Release
#
DISCID=af0ef80e
DTITLE=shirley johnson - killer diller
DYEAR=1900
DGENRE=Blues
TTITLE0=not for the love of you
TTITLE1=killer diller
TTITLE2=your turn to cry
TTITLE3=somebody have mercy
TTITLE4=as the years go passing by
TTITLE5=no deposit, no return
TTITLE6=hard-lovin' mama
TTITLE7=the blues is all i've got
TTITLE8=little wing
TTITLE9=for you my love
TTITLE10=love abuse
TTITLE11=it hurts me too
TTITLE12=missed the best chance
TTITLE13=saved
EXTD=ID3G: 0
EXTT0=
EXTT1=
EXTT2=
EXTT3=
EXTT4=
EXTT5=
EXTT6=
EXTT7=
EXTT8=
EXTT9=
EXTT10=
EXTT11=
EXTT12=
EXTT13=
PLAYORDER=
